ModelForces
version=1
nRows=4
nColumns=155
inDegrees=no

This file contains the forces exerted on a model during a simulation.

A force is a generalized force, meaning that it can be either a force (N) or a torque (Nm).

Units are S.I. units (second, meters, Newtons, ...)
Angles are in degrees.

endheader
time	glut_med1_r	glut_med2_r	glut_med3_r	glut_min1_r	glut_min2_r	glut_min3_r	semimem_r	semiten_r	bifemlh_r	bifemsh_r	sar_r	add_long_r	add_brev_r	add_mag1_r	add_mag2_r	add_mag3_r	tfl_r	pect_r	grac_r	glut_max1_r	glut_max2_r	glut_max3_r	iliacus_r	psoas_r	quad_fem_r	gem_r	peri_r	rect_fem_r	vas_med_r	vas_int_r	vas_lat_r	med_gas_r	lat_gas_r	soleus_r	tib_post_r	flex_dig_r	flex_hal_r	tib_ant_r	per_brev_r	per_long_r	per_tert_r	ext_dig_r	ext_hal_r	glut_med1_l	glut_med2_l	glut_med3_l	glut_min1_l	glut_min2_l	glut_min3_l	semimem_l	semiten_l	bifemlh_l	bifemsh_l	sar_l	add_long_l	add_brev_l	add_mag1_l	add_mag2_l	add_mag3_l	tfl_l	pect_l	grac_l	glut_max1_l	glut_max2_l	glut_max3_l	iliacus_l	psoas_l	quad_fem_l	gem_l	peri_l	rect_fem_l	vas_med_l	vas_int_l	vas_lat_l	med_gas_l	lat_gas_l	soleus_l	tib_post_l	flex_dig_l	flex_hal_l	tib_ant_l	per_brev_l	per_long_l	per_tert_l	ext_dig_l	ext_hal_l	ercspn_r	ercspn_l	intobl_r	intobl_l	extobl_r	extobl_l	femur_lat_meniscii_r.femur_lat_r.force.X	femur_lat_meniscii_r.femur_lat_r.force.Y	femur_lat_meniscii_r.femur_lat_r.force.Z	femur_lat_meniscii_r.femur_lat_r.torque.X	femur_lat_meniscii_r.femur_lat_r.torque.Y	femur_lat_meniscii_r.femur_lat_r.torque.Z	femur_lat_meniscii_r.meniscus_lat_r.force.X	femur_lat_meniscii_r.meniscus_lat_r.force.Y	femur_lat_meniscii_r.meniscus_lat_r.force.Z	femur_lat_meniscii_r.meniscus_lat_r.torque.X	femur_lat_meniscii_r.meniscus_lat_r.torque.Y	femur_lat_meniscii_r.meniscus_lat_r.torque.Z	femur_med_meniscii_r.femur_med_r.force.X	femur_med_meniscii_r.femur_med_r.force.Y	femur_med_meniscii_r.femur_med_r.force.Z	femur_med_meniscii_r.femur_med_r.torque.X	femur_med_meniscii_r.femur_med_r.torque.Y	femur_med_meniscii_r.femur_med_r.torque.Z	femur_med_meniscii_r.meniscus_med_r.force.X	femur_med_meniscii_r.meniscus_med_r.force.Y	femur_med_meniscii_r.meniscus_med_r.force.Z	femur_med_meniscii_r.meniscus_med_r.torque.X	femur_med_meniscii_r.meniscus_med_r.torque.Y	femur_med_meniscii_r.meniscus_med_r.torque.Z	femur_med_tibia_r.tibia_upper_r.force.X	femur_med_tibia_r.tibia_upper_r.force.Y	femur_med_tibia_r.tibia_upper_r.force.Z	femur_med_tibia_r.tibia_upper_r.torque.X	femur_med_tibia_r.tibia_upper_r.torque.Y	femur_med_tibia_r.tibia_upper_r.torque.Z	femur_med_tibia_r.femur_med_r.force.X	femur_med_tibia_r.femur_med_r.force.Y	femur_med_tibia_r.femur_med_r.force.Z	femur_med_tibia_r.femur_med_r.torque.X	femur_med_tibia_r.femur_med_r.torque.Y	femur_med_tibia_r.femur_med_r.torque.Z	femur_lat_tibia_r.tibia_upper_r.force.X	femur_lat_tibia_r.tibia_upper_r.force.Y	femur_lat_tibia_r.tibia_upper_r.force.Z	femur_lat_tibia_r.tibia_upper_r.torque.X	femur_lat_tibia_r.tibia_upper_r.torque.Y	femur_lat_tibia_r.tibia_upper_r.torque.Z	femur_lat_tibia_r.femur_lat_r.force.X	femur_lat_tibia_r.femur_lat_r.force.Y	femur_lat_tibia_r.femur_lat_r.force.Z	femur_lat_tibia_r.femur_lat_r.torque.X	femur_lat_tibia_r.femur_lat_r.torque.Y	femur_lat_tibia_r.femur_lat_r.torque.Z	aACL_R	pACL_R	aPCL_R	pPCL_R	aMCL_R	mMCL_R	pMCL_R	aLCL_R	mLCL_R	pLCL_R	aPCL_L	pPCL_L	aMCL_L	aLCL_L
      0.07410492	      0.00000000	     14.16913437	     14.61390490	      6.62936496	      7.53798503	      6.27247809	      0.00000000	    235.45109199	    273.66749833	    415.10401717	    137.85816642	     14.67586793	     10.23939369	      0.00000000	      0.00000000	     10.75146527	      8.71818485	      0.00000000	    121.44839904	      8.79900264	     14.32744540	     10.91725709	     39.35377353	     31.96827051	      0.00000000	      5.53733537	      0.00000000	     45.85373456	      0.00000000	      0.00000000	      0.00000000	     43.95988467	     38.06574373	      0.00000000	     27.42996351	      9.93889424	      7.78166920	     17.18442406	      4.32003516	     17.33479473	      5.89809715	     17.63567475	      5.47736107	      0.00000000	     14.16913437	     14.61390490	      6.62936496	      7.53798503	      6.27247809	      0.00000000	     11.17272417	      7.86119785	     18.35979814	      3.77335594	     14.67586793	     10.23939369	      0.00000000	      0.00000000	     10.75146527	      8.13736124	      0.00000000	      3.93043584	      8.79900264	     14.32744540	     10.91725709	     39.35377353	     31.96827051	      0.00000000	      5.53733537	      0.00000000	     27.74486207	      0.00000000	      0.00000000	      0.00000000	      0.00000000	      0.00000000	     35.92753274	     59.84375219	     10.95337074	      9.53258734	      8.99879971	     10.16017856	     22.15385683	      4.86085845	      6.68230032	      1.99797796	     62.47083481	     62.47083481	     24.07705584	     24.07705584	     40.62708749	     40.62708749	    147.26231069	    496.01814965	    -43.68537387	      5.38807785	      3.58175182	     58.72083270	   -147.26231069	   -496.01814965	     43.68537387	     13.70352593	     -4.14786126	     -0.79130381	     45.49964910	    673.01565613	     72.47546154	    -12.72811718	     -1.10985091	     17.91618992	    -45.49964910	   -673.01565613	    -72.47546154	    -11.83366886	      0.67124163	      1.57652564	      0.00000000	      0.00000000	      0.00000000	      0.00000000	      0.00000000	      0.00000000	      0.00000000	      0.00000000	      0.00000000	      0.00000000	      0.00000000	      0.00000000	      0.00000000	      0.00000000	      0.00000000	      0.00000000	      0.00000000	      0.00000000	      0.00000000	      0.00000000	      0.00000000	      0.00000000	      0.00000000	      0.00000000	      0.50048031	     -3.65337181	      0.00000000	     30.11903400	      0.00000000	    -16.01790394	    -35.94068540	     -7.13003252	      0.00000000	      0.00000000	      0.00000000	      0.00000000	      0.00000001	      0.00000000
      0.07583238	      0.00000000	     14.07238958	     14.62996959	      6.53768113	      7.43675888	      6.54949215	      0.00000000	    233.78627412	    268.23846016	    410.58529997	    137.67117758	     14.46431764	     10.09896317	      0.00000000	      0.00000000	     10.64137617	      8.63706985	      0.00000000	    121.02489383	      8.80516874	     14.14878620	     10.76355435	     38.95766421	     31.51843510	      0.00000000	      5.48271000	      0.00000000	     45.36164723	      0.00000000	      0.00000000	      0.00000000	     38.53621345	     32.92570804	      0.00000000	     24.82872456	     10.59328636	      8.22512389	     32.72349068	      3.63041438	     14.88188478	      7.28521916	     19.45942909	      6.05949245	      0.00000000	     14.07238958	     14.62996959	      6.53768113	      7.43675888	      6.54949215	      0.00000000	     11.00698147	      9.05803309	     18.10084734	      3.72138762	     14.46431764	     10.09896317	      0.00000000	      0.00000000	     10.64137617	      8.07560714	      0.00000000	      3.87548504	      8.80516874	     14.14878620	     10.76355435	     38.95766421	     31.51843510	      0.00000000	      5.48271000	      0.00000000	     27.61965422	      0.00000000	      0.00000000	      0.00000000	      0.00000000	      0.00000000	     38.83710802	     59.82766044	     11.02507911	      9.71880742	     10.55844725	     10.18670126	     22.22426010	      4.80317714	      6.85625455	      2.06679408	     61.60522937	     61.60522937	     23.72758547	     23.72758547	     40.29730221	     40.29730221	    144.14465688	    496.81392953	    -42.36425769	      4.77150484	      3.51559299	     57.33618561	   -144.14465688	   -496.81392953	     42.36425769	     13.80979403	     -4.06193799	     -0.52029229	     51.56738233	    639.29747214	     75.58801209	    -14.83260259	     -1.26780207	     20.37136399	    -51.56738233	   -639.29747214	    -75.58801209	    -11.08271279	      0.77785200	      1.45231910	      0.00000000	      0.00000000	      0.00000000	      0.00000000	      0.00000000	      0.00000000	      0.00000000	      0.00000000	      0.00000000	      0.00000000	      0.00000000	      0.00000000	      0.00000000	      0.00000000	      0.00000000	      0.00000000	      0.00000000	      0.00000000	      0.00000000	      0.00000000	      0.00000000	      0.00000000	      0.00000000	      0.00000000	     -0.70358016	     -5.39669171	      0.00000000	     34.85431375	      0.00000000	    -15.43055370	    -36.64309469	     -7.26352765	      0.00000000	      0.00000000	      0.00000000	      0.00000000	      0.00000001	      0.00000000
      0.07672431	      0.00000000	     14.01439210	     14.61941218	      6.49120704	      7.38541633	      6.66255026	      0.00000000	    232.97138527	    265.54298488	    408.61833350	    137.66645489	     14.35710589	     10.02777532	      0.00000000	      0.00000000	     10.58335860	      8.59590830	      0.00000000	    120.86310493	      8.79750256	     14.05596818	     10.68529185	     38.75700944	     31.29056033	      0.00000000	      5.45450692	      0.00000000	     45.13608651	      0.00000000	      0.00000000	      0.00000000	     35.87668319	     30.48388232	      0.00000000	     23.46201782	     10.84504071	      8.39293935	     36.40145442	      3.39063112	     13.82438153	      6.97995568	     19.94589560	      6.21492700	      0.00000000	     14.01439210	     14.61941218	      6.49120704	      7.38541633	      6.66255026	      0.00000000	     10.92299353	      9.59962955	     17.96960381	      3.69504454	     14.35710589	     10.02777532	      0.00000000	      0.00000000	     10.58335860	      8.04319991	      0.00000000	      3.84763281	      8.79750256	     14.05596818	     10.68529185	     38.75700944	     31.29056033	      0.00000000	      5.45450692	      0.00000000	     27.54865278	      0.00000000	      0.00000000	      0.00000000	      0.00000000	      0.00000000	     40.20907042	     59.81542210	     11.03996208	      9.79379412	     11.24835058	     10.19491825	     22.25445509	      4.77334496	      6.95405391	      2.10533677	     61.16646736	     61.16646736	     23.55027445	     23.55027445	     40.13028023	     40.13028023	    144.72521348	    493.50739214	    -42.37171504	      4.84696918	      3.53095583	     57.55992345	   -144.72521348	   -493.50739214	     42.37171504	     13.71695000	     -4.07519649	     -0.49165566	     51.16057945	    623.38486020	     74.23807121	    -14.67105580	     -1.27094400	     20.19761326	    -51.16057945	   -623.38486020	    -74.23807121	    -10.80386502	      0.78069355	      1.47491125	      0.00000000	      0.00000000	      0.00000000	      0.00000000	      0.00000000	      0.00000000	      0.00000000	      0.00000000	      0.00000000	      0.00000000	      0.00000000	      0.00000000	      0.00000000	      0.00000000	      0.00000000	      0.00000000	      0.00000000	      0.00000000	      0.00000000	      0.00000000	      0.00000000	      0.00000000	      0.00000000	      0.00000000	     -1.22162082	     -6.15677472	      0.00000000	     37.19378725	      0.00000000	    -15.28420814	    -37.14015047	     -7.59011534	      0.00000000	      0.00000000	      0.00000000	      0.00000000	      0.00000001	      0.00000000
      0.07761624	      0.00000000	     13.95186002	     14.60033509	      6.44531179	      7.33469764	      6.75823616	      0.00000000	    232.08856921	    262.76088804	    406.33996916	    137.58704360	     14.25124372	      9.95747178	      0.00000000	      0.00000000	     10.52466035	      8.55332256	      0.00000000	    120.64657373	      8.78452790	     13.96299125	     10.60779763	     38.55894025	     31.06561696	      0.00000000	      5.42633872	      0.00000000	     44.87859704	      0.00000000	      0.00000000	      0.00000000	     33.31693784	     28.17530265	      0.00000000	     22.08992999	     11.02999157	      8.51439118	     36.75687038	      3.21266813	     12.89907519	      8.00239596	     20.06697242	      6.26065915	      0.00000000	     13.95186002	     14.60033509	      6.44531179	      7.33469764	      6.75823616	      0.00000000	     10.84006807	     10.09629316	     17.84000616	      3.66902918	     14.25124372	      9.95747178	      0.00000000	      0.00000000	     10.52466035	      8.01047648	      0.00000000	      3.82012877	      8.78452790	     13.96299125	     10.60779763	     38.55894025	     31.06561696	      0.00000000	      5.42633872	      0.00000000	     27.47351193	      0.00000000	      0.00000000	      0.00000000	      0.00000000	      0.00000000	     41.49979650	     59.80049415	     11.04037405	      9.85433474	     11.87168442	     10.19965986	     22.28064063	      4.74352219	      7.05699969	      2.14582389	     60.73317521	     60.73317521	     23.37507453	     23.37507453	     39.96543391	     39.96543391	    142.17977266	    493.15508268	    -41.88657840	      4.64034366	      3.46845867	     56.45416911	   -142.17977266	   -493.15508268	     41.88657840	     13.73167051	     -3.99750295	     -0.32096349	     46.00237409	    603.02444813	     72.44615056	    -14.41329663	     -1.10838501	     17.99629893	    -46.00237409	   -603.02444813	    -72.44615056	    -10.47278565	      0.64205506	      1.68766240	      0.00000000	      0.00000000	      0.00000000	      0.00000000	      0.00000000	      0.00000000	      0.00000000	      0.00000000	      0.00000000	      0.00000000	      0.00000000	      0.00000000	      0.00000000	      0.00000000	      0.00000000	      0.00000000	      0.00000000	      0.00000000	      0.00000000	      0.00000000	      0.00000000	      0.00000000	      0.00000000	      0.00000000	     -2.01277257	     -7.16442604	      0.00000000	     39.04694494	      0.00000000	    -15.81179713	    -38.30015310	     -8.72505377	      0.00000000	      0.00000000	      0.00000000	      0.00000000	      0.00000001	      0.00000000
